<mxfile host="app.diagrams.net" modified="2023-08-16T13:53:56.235Z" agent="Mozilla/5.0 (Windows NT 10.0; Win64; x64) AppleWebKit/537.36 (KHTML, like Gecko) Chrome/115.0.0.0 Safari/537.36 Edg/115.0.1901.203" etag="oaHl9kFuXK6Ze7mERv56" version="21.6.8" type="github">
  <diagram id="C5RBs43oDa-KdzZeNtuy" name="Page-1">
    <mxGraphModel dx="842" dy="567" grid="1" gridSize="10" guides="1" tooltips="1" connect="1" arrows="1" fold="1" page="1" pageScale="1" pageWidth="1169" pageHeight="827" math="0" shadow="0">
      <root>
        <mxCell id="WIyWlLk6GJQsqaUBKTNV-0" />
        <mxCell id="WIyWlLk6GJQsqaUBKTNV-1" parent="WIyWlLk6GJQsqaUBKTNV-0" />
        <mxCell id="8CgoTSZrTO_8La05noaP-6" style="edgeStyle=orthogonalEdgeStyle;rounded=0;orthogonalLoop=1;jettySize=auto;html=1;entryX=0;entryY=0.5;entryDx=0;entryDy=0;strokeColor=#FF6666;fontColor=#EA6B66;" parent="WIyWlLk6GJQsqaUBKTNV-1" source="8CgoTSZrTO_8La05noaP-0" target="8CgoTSZrTO_8La05noaP-2" edge="1">
          <mxGeometry relative="1" as="geometry" />
        </mxCell>
        <mxCell id="8CgoTSZrTO_8La05noaP-18" style="edgeStyle=orthogonalEdgeStyle;rounded=0;orthogonalLoop=1;jettySize=auto;html=1;exitX=0.25;exitY=1;exitDx=0;exitDy=0;entryX=0.25;entryY=0;entryDx=0;entryDy=0;fontColor=#EA6B66;strokeColor=#FF6666;" parent="WIyWlLk6GJQsqaUBKTNV-1" source="8CgoTSZrTO_8La05noaP-0" target="8CgoTSZrTO_8La05noaP-0" edge="1">
          <mxGeometry relative="1" as="geometry">
            <mxPoint x="247.42857142857144" y="279.94" as="targetPoint" />
            <Array as="points">
              <mxPoint x="248" y="350" />
              <mxPoint x="190" y="350" />
              <mxPoint x="190" y="270" />
              <mxPoint x="248" y="270" />
            </Array>
          </mxGeometry>
        </mxCell>
        <mxCell id="8CgoTSZrTO_8La05noaP-0" value="epoll_wait" style="rounded=0;whiteSpace=wrap;html=1;" parent="WIyWlLk6GJQsqaUBKTNV-1" vertex="1">
          <mxGeometry x="220" y="289.94" width="110" height="40" as="geometry" />
        </mxCell>
        <mxCell id="8CgoTSZrTO_8La05noaP-7" style="edgeStyle=orthogonalEdgeStyle;rounded=0;orthogonalLoop=1;jettySize=auto;html=1;entryX=-0.023;entryY=0.476;entryDx=0;entryDy=0;entryPerimeter=0;" parent="WIyWlLk6GJQsqaUBKTNV-1" source="8CgoTSZrTO_8La05noaP-2" target="8CgoTSZrTO_8La05noaP-5" edge="1">
          <mxGeometry relative="1" as="geometry" />
        </mxCell>
        <mxCell id="8CgoTSZrTO_8La05noaP-2" value="Request&amp;nbsp; Queue" style="rounded=0;whiteSpace=wrap;html=1;" parent="WIyWlLk6GJQsqaUBKTNV-1" vertex="1">
          <mxGeometry x="410" y="289.94" width="160" height="40" as="geometry" />
        </mxCell>
        <mxCell id="8CgoTSZrTO_8La05noaP-16" style="edgeStyle=orthogonalEdgeStyle;rounded=0;orthogonalLoop=1;jettySize=auto;html=1;strokeColor=#67AB9F;" parent="WIyWlLk6GJQsqaUBKTNV-1" source="8CgoTSZrTO_8La05noaP-5" target="8CgoTSZrTO_8La05noaP-0" edge="1">
          <mxGeometry relative="1" as="geometry">
            <Array as="points">
              <mxPoint x="720" y="189.94" />
              <mxPoint x="300" y="189.94" />
            </Array>
          </mxGeometry>
        </mxCell>
        <mxCell id="8CgoTSZrTO_8La05noaP-17" style="edgeStyle=orthogonalEdgeStyle;rounded=0;orthogonalLoop=1;jettySize=auto;html=1;strokeColor=#67AB9F;" parent="WIyWlLk6GJQsqaUBKTNV-1" source="8CgoTSZrTO_8La05noaP-5" edge="1">
          <mxGeometry relative="1" as="geometry">
            <mxPoint x="300" y="329.94" as="targetPoint" />
            <Array as="points">
              <mxPoint x="720" y="439.94" />
              <mxPoint x="300" y="439.94" />
              <mxPoint x="300" y="329.94" />
            </Array>
          </mxGeometry>
        </mxCell>
        <mxCell id="8CgoTSZrTO_8La05noaP-5" value="" style="rounded=0;whiteSpace=wrap;html=1;" parent="WIyWlLk6GJQsqaUBKTNV-1" vertex="1">
          <mxGeometry x="640" y="219.94" width="160" height="190" as="geometry" />
        </mxCell>
        <mxCell id="8CgoTSZrTO_8La05noaP-9" value="read" style="rounded=0;whiteSpace=wrap;html=1;" parent="WIyWlLk6GJQsqaUBKTNV-1" vertex="1">
          <mxGeometry x="670" y="239.94" width="100" height="30" as="geometry" />
        </mxCell>
        <mxCell id="8CgoTSZrTO_8La05noaP-10" value="write" style="rounded=0;whiteSpace=wrap;html=1;" parent="WIyWlLk6GJQsqaUBKTNV-1" vertex="1">
          <mxGeometry x="670" y="279.94" width="100" height="30" as="geometry" />
        </mxCell>
        <mxCell id="8CgoTSZrTO_8La05noaP-11" value="logic" style="rounded=0;whiteSpace=wrap;html=1;" parent="WIyWlLk6GJQsqaUBKTNV-1" vertex="1">
          <mxGeometry x="670" y="319.94" width="100" height="30" as="geometry" />
        </mxCell>
        <mxCell id="8CgoTSZrTO_8La05noaP-13" value="Process" style="text;html=1;strokeColor=none;fillColor=none;align=center;verticalAlign=middle;whiteSpace=wrap;rounded=0;" parent="WIyWlLk6GJQsqaUBKTNV-1" vertex="1">
          <mxGeometry x="690" y="369.94" width="60" height="30" as="geometry" />
        </mxCell>
        <mxCell id="8CgoTSZrTO_8La05noaP-20" value="Write&amp;nbsp; Register" style="text;html=1;strokeColor=none;fillColor=none;align=center;verticalAlign=middle;whiteSpace=wrap;rounded=0;fontColor=#67AB9F;" parent="WIyWlLk6GJQsqaUBKTNV-1" vertex="1">
          <mxGeometry x="460" y="160" width="130" height="30" as="geometry" />
        </mxCell>
        <mxCell id="8CgoTSZrTO_8La05noaP-22" value="Read Register" style="text;html=1;strokeColor=none;fillColor=none;align=center;verticalAlign=middle;whiteSpace=wrap;rounded=0;fontColor=#67AB9F;" parent="WIyWlLk6GJQsqaUBKTNV-1" vertex="1">
          <mxGeometry x="460" y="440" width="130" height="30" as="geometry" />
        </mxCell>
        <mxCell id="8CgoTSZrTO_8La05noaP-23" value="Read Register" style="text;html=1;strokeColor=none;fillColor=none;align=center;verticalAlign=middle;whiteSpace=wrap;rounded=0;fontColor=#EA6B66;" parent="WIyWlLk6GJQsqaUBKTNV-1" vertex="1">
          <mxGeometry x="160" y="239.94" width="130" height="30" as="geometry" />
        </mxCell>
        <mxCell id="8CgoTSZrTO_8La05noaP-24" value="Listen Loop&lt;br&gt;Connect Socket Event" style="text;html=1;strokeColor=none;fillColor=none;align=center;verticalAlign=middle;whiteSpace=wrap;rounded=0;fontColor=#EA6B66;" parent="WIyWlLk6GJQsqaUBKTNV-1" vertex="1">
          <mxGeometry x="70" y="294.94" width="120" height="30" as="geometry" />
        </mxCell>
        <mxCell id="8CgoTSZrTO_8La05noaP-26" value="Insert Ready Event" style="text;html=1;strokeColor=none;fillColor=none;align=center;verticalAlign=middle;whiteSpace=wrap;rounded=0;fontColor=#EA6B66;" parent="WIyWlLk6GJQsqaUBKTNV-1" vertex="1">
          <mxGeometry x="310" y="339.94" width="130" height="30" as="geometry" />
        </mxCell>
        <mxCell id="8CgoTSZrTO_8La05noaP-29" value="Reactor Model" style="text;html=1;strokeColor=none;fillColor=none;align=center;verticalAlign=middle;whiteSpace=wrap;rounded=0;fontSize=18;" parent="WIyWlLk6GJQsqaUBKTNV-1" vertex="1">
          <mxGeometry x="430" y="470" width="140" height="30" as="geometry" />
        </mxCell>
        <mxCell id="86daziNN2o27-4K1fmQL-0" value="1" style="ellipse;whiteSpace=wrap;html=1;aspect=fixed;fillColor=#f8cecc;strokeColor=#b85450;fontColor=#EA6B66;" vertex="1" parent="WIyWlLk6GJQsqaUBKTNV-1">
          <mxGeometry x="215" y="219.94" width="20" height="20" as="geometry" />
        </mxCell>
        <mxCell id="86daziNN2o27-4K1fmQL-1" value="2" style="ellipse;whiteSpace=wrap;html=1;aspect=fixed;fillColor=#f8cecc;strokeColor=#b85450;fontColor=#EA6B66;" vertex="1" parent="WIyWlLk6GJQsqaUBKTNV-1">
          <mxGeometry x="120" y="259.94" width="20" height="20" as="geometry" />
        </mxCell>
        <mxCell id="86daziNN2o27-4K1fmQL-2" value="3" style="ellipse;whiteSpace=wrap;html=1;aspect=fixed;fillColor=#f8cecc;strokeColor=#b85450;fontColor=#EA6B66;" vertex="1" parent="WIyWlLk6GJQsqaUBKTNV-1">
          <mxGeometry x="360" y="324.94" width="20" height="20" as="geometry" />
        </mxCell>
        <mxCell id="86daziNN2o27-4K1fmQL-3" value="4" style="ellipse;whiteSpace=wrap;html=1;aspect=fixed;fillColor=#B3B3B3;strokeColor=#000000;fontColor=#000000;" vertex="1" parent="WIyWlLk6GJQsqaUBKTNV-1">
          <mxGeometry x="590" y="284.94" width="20" height="20" as="geometry" />
        </mxCell>
      </root>
    </mxGraphModel>
  </diagram>
</mxfile>
